<svg xmlns="http://www.w3.org/2000/svg" width="430" height="430" style="width:100%;height:100%;transform:translate3d(0,0,0);content-visibility:visible" viewBox="0 0 430 430"><defs><clipPath id="c"><path d="M0 0h430v430H0z"/></clipPath><clipPath id="d"><path d="M0 0h430v430H0z"/></clipPath><filter id="a" width="100%" height="100%" x="0%" y="0%" filterUnits="objectBoundingBox"><feComponentTransfer in="SourceGraphic"><feFuncA tableValues="1.0 0.0" type="table"/></feComponentTransfer></filter><path id="b" fill="red" d="M-60.734 148.093c0-33.543 27.191-60.734 60.734-60.734 33.543 0 60.734 27.191 60.734 60.734 0 33.543-27.191 60.735-60.734 60.735-33.543 0-60.734-27.192-60.734-60.735z" style="display:block" transform="translate(227.5 102.141)"/><mask id="e" mask-type="alpha"><g filter="url(#a)"><path fill="#fff" d="M0 0h430v430H0z" opacity="0"/><use xmlns:ns1="http://www.w3.org/1999/xlink" ns1:href="#b"/></g></mask></defs><g clip-path="url(#c)"><g clip-path="url(#d)" style="display:block"><path fill="#646E78" d="M-106.746-160.119h213.492v320.238h-213.492v-320.238z" class="secondary" style="display:block" transform="translate(215 215)"/><path fill="#3A3347" d="M-81.264 0c0-44.881 36.383-81.264 81.264-81.264 44.881 0 81.264 36.383 81.264 81.264 0 44.881-36.383 81.264-81.264 81.264-44.881 0-81.264-36.383-81.264-81.264z" class="tertiary" style="display:block" transform="translate(215 260.234)"/><path fill="#646E78" d="M-23.258 0c0-12.845 10.413-23.258 23.258-23.258 12.845 0 23.258 10.413 23.258 23.258 0 12.845-10.413 23.258-23.258 23.258-12.845 0-23.258-10.413-23.258-23.258z" class="secondary" style="display:block" transform="translate(215 260.234)"/><path fill="#3A3347" d="M-23.258 0c0-12.845 10.413-23.258 23.258-23.258 12.845 0 23.258 10.413 23.258 23.258 0 12.845-10.413 23.258-23.258 23.258-12.845 0-23.258-10.413-23.258-23.258z" class="tertiary" style="display:block" transform="translate(215 260.234)"/><path fill="#3A3347" d="M-30.142 0c0-16.647 13.495-30.142 30.142-30.142S30.142-16.647 30.142 0 16.647 30.142 0 30.142-30.142 16.647-30.142 0z" class="tertiary" style="display:block" transform="translate(215 112.141)"/><g opacity=".5" style="mix-blend-mode:multiply;display:block"><path fill="#3A3347" d="M-27.345-1.28c0-12.33 7.4-22.92 18-27.58-3.54 4.93-5.61 10.96-5.61 17.49 0 16.65 13.49 30.14 30.14 30.14 4.33 0 8.44-.91 12.16-2.56-5.46 7.66-14.42 12.65-24.54 12.65-16.65 0-30.15-13.49-30.15-30.14z" class="tertiary" opacity="1" style="mix-blend-mode:multiply" transform="translate(212.2 113.42)"/></g><g opacity=".5" style="mix-blend-mode:multiply;display:block"><path fill="#646E78" d="M106.745 150.03v10.09h-213.49v-320.24h12.38v310.15h201.11z" class="secondary" opacity="1" style="mix-blend-mode:multiply" transform="translate(215 215)"/></g><g style="display:block"><path fill="#FFC738" d="M154.266 260.234c0-33.543 27.191-60.734 60.734-60.734 33.543 0 60.734 27.191 60.734 60.734 0 33.543-27.191 60.735-60.734 60.735-33.543 0-60.734-27.192-60.734-60.735z" class="quaternary"/><path fill="#3A3347" d="M191.742 260.234c0-12.845 10.413-23.258 23.258-23.258 12.845 0 23.258 10.413 23.258 23.258 0 12.845-10.413 23.258-23.258 23.258-12.845 0-23.258-10.413-23.258-23.258z" class="tertiary"/></g><g mask="url(#e)" opacity=".5" style="mix-blend-mode:multiply;display:block"><path fill="#FFC738" d="M154.266 260.234c0-33.543 27.191-60.734 60.734-60.734 33.543 0 60.734 27.191 60.734 60.734 0 33.543-27.191 60.735-60.734 60.735-33.543 0-60.734-27.192-60.734-60.735z" class="quaternary" opacity="1"/></g><g fill="none" stroke="#121331" stroke-linecap="round" stroke-linejoin="round" style="display:block"><path stroke-width="7" d="M108.254 54.881h213.492v320.238H108.254V54.881zm25.482 205.353c0-44.881 36.383-81.264 81.264-81.264 44.881 0 81.264 36.383 81.264 81.264 0 44.881-36.383 81.265-81.264 81.265-44.881 0-81.264-36.384-81.264-81.265zm51.122-148.093c0-16.647 13.495-30.142 30.142-30.142s30.142 13.495 30.142 30.142-13.495 30.142-30.142 30.142-30.142-13.495-30.142-30.142z" class="primary"/><path stroke-width="7" d="M154.266 260.234c0-33.543 27.191-60.734 60.734-60.734 33.543 0 60.734 27.191 60.734 60.734 0 33.543-27.191 60.735-60.734 60.735-33.543 0-60.734-27.192-60.734-60.735z" class="primary"/><path stroke-width="7" d="M191.742 260.234c0-12.845 10.413-23.258 23.258-23.258 12.845 0 23.258 10.413 23.258 23.258 0 12.845-10.413 23.258-23.258 23.258-12.845 0-23.258-10.413-23.258-23.258z" class="primary"/><path stroke-width="11.97" d="M287.906 348.09H288" class="primary"/></g><path fill="none" class="primary" style="display:none"/><path fill="none" class="primary" style="display:none"/><path fill="none" class="primary" style="display:none"/><path fill="none" class="primary" style="display:none"/></g></g></svg>